<?xml version="1.0" encoding="UTF-8"?>
<svg width="989px" height="226px" viewBox="0 0 989 226" version="1.1" xmlns="http://www.w3.org/2000/svg" xmlns:xlink="http://www.w3.org/1999/xlink">
    <!-- Generator: Sketch 46.2 (44496) - http://www.bohemiancoding.com/sketch -->
    <title>DailyBugleLogo</title>
    <desc>Created with Sketch.</desc>
    <defs>
        <path d="M162.053766,78.3766886 C168.499557,77.3655266 174.711099,62.1546768 174.483821,45.2347501 C174.229704,26.3167321 167.392842,11.2119952 162.053766,9.83203837 C154.364568,7.84466056 148.76377,25.4266745 148.76377,44.354757 C148.76377,63.2828395 155.488175,79.4066438 162.053766,78.3766886 Z" id="path-1"></path>
    </defs>
    <g id="Page-1" stroke="none" stroke-width="1" fill="none" fill-rule="evenodd">
        <g id="Artboard" transform="translate(-832.000000, -591.000000)">
            <g id="DailyBugleLogo" transform="translate(832.000000, 591.000000)">
                <polygon id="Rectangle-3" fill="#CC0000" points="36.219737 26 988.219737 26 952 202 0 202"></polygon>
                <polygon id="Rectangle-3" fill="#000000" points="392.219737 0 615.219737 0 567 226 344 226"></polygon>
                <path d="M501.793917,43.8560665 C503.534371,44.4661301 505.865977,45.3566211 508.601188,46.6546484 C507.321981,46.4156038 503.870886,45.8760052 501.789538,46.5559296 C498.158119,47.7484242 495.772051,52.1931769 495.772051,52.1931769 C495.772051,52.1931769 500.002684,53.817688 503.286224,52.112275 C506.944747,50.2152454 508.698199,47.444059 509.036642,46.8631272 C511.917094,48.2542974 515.221095,50.0910708 518.739392,52.5152668 C517.232362,51.9856686 514.402462,51.1331516 512.465358,51.4105855 C508.602021,51.9634154 505.419878,56.0079732 505.419878,56.0079732 C505.419878,56.0079732 509.382455,58.3902658 512.983131,57.2570992 C516.760245,56.0730184 518.979239,53.8121081 519.596172,53.1143715 C522.228472,54.9821391 524.969204,57.1788892 527.733173,59.7623627 C527.949307,59.9533658 528.164712,60.1473302 528.379345,60.3442097 C526.95052,59.5423694 524.28152,58.2026069 522.299259,58.1389304 C518.319423,58.0073299 514.404848,61.5120021 514.404848,61.5120021 C514.404848,61.5120021 517.96723,64.6067711 521.78742,64.1067971 C525.8274,63.5813714 528.468718,61.6738974 529.184874,61.1002653 C531.792266,63.6035405 534.275403,66.53643 536.554609,69.8135416 C535.252871,68.7512289 532.832439,66.9586094 530.87055,66.5467997 C526.892872,65.7108129 522.34025,68.5375268 522.34025,68.5375268 C522.34025,68.5375268 525.368679,72.2778933 529.294581,72.4526415 C533.362976,72.6372638 536.316506,71.2512924 537.208409,70.7714146 C539.127987,73.6371012 540.89204,76.7497191 542.450366,80.0554659 C541.26855,78.763528 539.512099,77.0737667 537.909019,76.4313991 C534.061323,74.8856326 528.986614,76.9205861 528.986614,76.9205861 C528.986614,76.9205861 531.363513,81.21594 535.278088,82.0875236 C539.038535,82.9275087 542.075827,82.2402322 543.279638,81.8773829 C544.62651,84.9442115 545.795891,88.1625051 546.750086,91.4918658 C545.796663,90.0416843 544.448271,88.2773613 543.072181,87.422737 C539.479596,85.189304 534.017636,86.3337969 534.017636,86.3337969 C534.017636,86.3337969 535.648619,91.0724933 539.427279,92.6414517 C542.951019,94.1077652 546.044253,94.0075682 547.387962,93.8621355 C548.218374,97.160789 548.835307,100.556198 549.203709,104.010794 C548.502507,102.369815 547.444511,100.304886 546.189603,99.1821041 C542.978335,96.2998375 537.285535,96.4837546 537.285535,96.4837546 C537.285535,96.4837546 538.081071,101.533654 541.604081,103.780031 C544.911071,105.894655 548.060391,106.332861 549.419249,106.420147 C549.662117,109.782039 549.665459,113.191048 549.397671,116.6133 C548.984841,114.833305 548.284354,112.542988 547.213282,111.180941 C544.491741,107.714023 538.741231,106.890981 538.741231,106.890981 C538.741231,106.890981 538.65116,112.106999 541.791773,114.989265 C544.727318,117.69029 547.806549,118.691029 549.164125,119.022783 C548.809422,122.086654 548.232027,125.154763 547.409347,128.202895 C547.283508,126.430457 546.968714,124.304326 546.212795,122.891767 C544.092625,118.926493 538.458074,117.079771 538.458074,117.079771 C538.458074,117.079771 537.440867,122.304958 540.083124,125.755696 C542.486812,128.897561 545.304541,130.451218 546.661199,131.064492 C545.798413,134.114661 544.712383,137.055165 543.436481,139.87623 C543.633484,138.053145 543.707612,135.804264 543.18922,134.220196 C541.759413,129.861739 536.425817,127.00644 536.425817,127.00644 C536.425817,127.00644 534.47608,132.074677 536.522899,136.014062 C538.372322,139.583404 540.917939,141.64229 542.1765,142.503864 C540.824585,145.169539 539.303509,147.719669 537.643836,150.145303 C538.102743,148.44567 538.471085,146.451446 538.250426,144.920827 C537.591344,140.287842 532.738307,136.473585 532.738307,136.473585 C532.738307,136.473585 529.881389,141.222529 531.236227,145.543232 C532.416026,149.303255 534.487919,151.777783 535.635631,152.932501 C533.887273,155.23962 532.014415,157.420912 530.046847,159.467649 C530.751827,157.912655 531.386854,156.124632 531.434707,154.65333 C531.587342,149.879576 527.388531,145.188342 527.388531,145.188342 C527.388531,145.188342 523.67675,149.453493 524.275424,154.035239 C524.781218,157.944552 526.370471,160.762604 527.327165,162.156334 C525.249471,164.108657 523.088061,165.918303 520.874087,167.576147 C521.829317,166.164769 522.740753,164.531686 523.039782,163.100572 C524.042426,158.331672 520.64832,152.872948 520.64832,152.872948 C520.64832,152.872948 516.164735,156.502209 515.952771,161.211242 C515.771073,165.222587 516.865352,168.333449 517.579788,169.906472 C515.108354,171.555465 512.59227,173.017247 510.072378,174.279857 C511.364179,172.979732 512.702533,171.389671 513.295412,169.908201 C515.14537,165.290857 512.706446,159.203795 512.706446,159.203795 C512.706446,159.203795 507.552453,162.056397 506.508279,166.751946 C505.597634,170.833526 506.187391,174.205625 506.63067,175.880009 C503.987716,177.013633 501.361103,177.921264 498.798236,178.589017 C500.250693,177.541674 501.747983,176.254556 502.559185,174.947313 C505.238118,170.637936 503.861706,164.086497 503.861706,164.086497 C503.861706,164.086497 498.178075,166.040548 496.296296,170.573215 C494.769191,174.248696 494.661049,177.536217 494.773312,179.391406 C491.055792,180.098017 487.684113,181.051183 484.663675,182.12763 C482.588291,182.86395 480.704221,183.632257 479.000727,184.406437 C477.297336,183.632257 475.413327,182.86395 473.337943,182.12763 C470.313933,181.050543 466.941917,180.096883 463.222195,179.390146 C463.335116,177.534729 463.227548,174.247864 461.699389,170.573215 C459.816531,166.040548 454.133979,164.086497 454.133979,164.086497 C454.133979,164.086497 452.762421,170.637936 455.437579,174.947313 C456.248373,176.253529 457.743593,177.539652 459.194493,178.586548 C456.633467,177.918707 454.008846,177.011366 451.36792,175.878378 C451.810867,174.203437 452.399538,170.832201 451.489564,166.751946 C450.443232,162.056397 445.291936,159.203795 445.291936,159.203795 C445.291936,159.203795 442.851394,165.290857 444.701891,169.908201 C445.294611,171.388059 446.630967,172.976274 447.92161,174.275614 C445.403088,173.013221 442.888399,171.551877 440.418314,169.903526 C441.132777,168.329566 442.225578,165.220084 442.043992,161.211242 C441.833108,156.502209 437.347365,152.872948 437.347365,152.872948 C437.347365,152.872948 433.953259,158.331672 434.956982,163.100572 C435.255647,164.52886 436.164113,166.15832 437.117247,167.567784 C434.906394,165.911651 432.747992,164.104138 430.673062,162.154333 C431.629179,160.759908 433.21613,157.942681 433.722419,154.035239 C434.321632,149.453493 430.608772,145.188342 430.608772,145.188342 C430.608772,145.188342 426.410501,149.879576 426.562057,154.65333 C426.610297,156.122183 427.243858,157.906705 427.947924,159.459885 C425.982335,157.414724 424.111282,155.235272 422.364468,152.930231 C423.512636,151.774541 425.582589,149.300793 426.761615,145.543232 C428.118071,141.222529 425.259536,136.473585 425.259536,136.473585 C425.259536,136.473585 420.407037,140.287842 419.746338,144.920827 C419.526133,146.448296 419.892738,148.437464 420.350574,150.134806 C418.692948,147.711527 417.173609,145.164041 415.823014,142.501273 C417.083006,141.638166 419.625809,139.579831 421.474943,136.014062 C423.520684,132.074677 421.569868,127.00644 421.569868,127.00644 C421.569868,127.00644 416.237891,129.861739 414.809162,134.220196 C414.290859,135.800637 414.362784,138.042848 414.55837,139.863698 C413.284492,137.046274 412.199943,134.109762 411.337947,131.063896 C412.69587,130.450212 415.513623,128.896543 417.914179,125.755696 C420.557515,122.304958 419.539229,117.079771 419.539229,117.079771 C419.539229,117.079771 413.905757,118.926493 411.786666,122.891767 C411.030421,124.303423 410.715007,126.427739 410.58867,128.199495 C409.766586,125.152427 409.189613,122.085405 408.835177,119.022617 C410.192619,118.690696 413.270609,117.689841 416.207687,114.989265 C419.348301,112.106999 419.254454,106.890981 419.254454,106.890981 C419.254454,106.890981 413.503944,107.714023 410.7851,111.180941 C409.714683,112.542532 409.014441,114.831772 408.601616,116.611513 C408.334118,113.189829 408.337659,109.78139 408.580645,106.420053 C409.94035,106.332547 413.088501,105.893897 416.392683,103.780031 C419.912457,101.533654 420.712307,96.4837546 420.712307,96.4837546 C420.712307,96.4837546 415.019507,96.2998375 411.806622,99.1821041 C410.553587,100.302946 409.497749,102.362683 408.797197,104.002286 C409.165846,100.550787 409.782564,97.1584014 410.612384,93.8626024 C411.958978,94.0077809 415.050458,94.1061957 418.570024,92.6414517 C422.35192,91.0724933 423.978049,86.3337969 423.978049,86.3337969 C423.978049,86.3337969 418.515011,85.189304 414.924043,87.422737 C413.55243,88.275299 412.206988,90.0331746 411.253496,91.4813621 C412.207169,88.1561583 413.375471,84.9418023 414.720839,81.8785495 C415.926941,82.2417023 418.960926,82.9266093 422.716518,82.0875236 C426.634869,81.21594 429.009071,76.9205861 429.009071,76.9205861 C429.009071,76.9205861 423.93652,74.8856326 420.085587,76.4313991 C418.487268,77.0718593 416.73722,78.7535021 415.556129,80.0439466 C417.112974,76.7430875 418.874915,73.6349013 420.79195,70.7729739 C421.687783,71.254287 424.640418,72.6370642 428.702183,72.4526415 C432.629703,72.2778933 435.655436,68.5375268 435.655436,68.5375268 C435.655436,68.5375268 431.104971,65.7108129 427.126753,66.5467997 C425.169401,66.9575788 422.756313,68.7422656 421.452381,69.8055527 C423.729532,66.5325734 426.210069,63.6031352 428.814567,61.1023512 C429.534754,61.6785066 432.175409,63.5820065 436.210962,64.1067971 C440.030613,64.6067711 443.591916,61.5120021 443.591916,61.5120021 C443.591916,61.5120021 439.677341,58.0073299 435.697505,58.1389304 C433.72126,58.2024257 431.061656,59.534755 429.62975,60.3373516 C429.841909,60.1428255 430.054821,59.9511476 430.268445,59.7623627 C433.031366,57.1802359 435.770967,54.9844295 438.402211,53.1172927 C439.023106,53.8183969 441.242313,56.0746657 445.014172,57.2570992 C448.615388,58.3902658 452.577965,56.0079732 452.577965,56.0079732 C452.577965,56.0079732 449.393664,51.9634154 445.532484,51.4105855 C443.602429,51.13389 440.780604,51.9811385 439.269321,52.5110313 C442.783604,50.090286 446.083816,48.2555406 448.961483,46.8654607 C449.303253,47.4514414 451.05701,50.2177727 454.711619,52.112275 C457.99408,53.817688 462.223634,52.1931769 462.223634,52.1931769 C462.223634,52.1931769 459.840263,47.7484242 456.208305,46.5559296 C454.133533,45.8777301 450.693188,46.4128738 449.405619,46.6528232 C452.137766,45.3564632 454.466948,44.4667731 456.206233,43.8570214 C456.744786,44.1380366 459.516468,45.4747121 462.00358,44.6196764 C465.464566,43.4314965 467.177529,41.0977451 467.177529,41.0977451 C467.177529,41.0977451 463.60436,39.7305023 461.478257,40.0902463 C458.976356,40.5198154 456.898287,42.8414609 456.291929,43.5806818 C454.959329,43.990906 453.268955,44.5654491 451.304991,45.3643912 C452.626556,44.4299157 454.677808,42.808755 455.509312,41.2352784 C457.300481,37.8530379 455.927305,33 455.927305,33 C455.927305,33 451.752765,34.764741 450.576451,38.2731886 C449.342546,41.9365394 449.846245,44.9929944 450.043533,45.8931114 C447.289529,47.0813988 444.084125,48.6873166 440.624361,50.8514861 C441.778477,49.6586324 443.368917,47.8054623 443.889635,46.1864774 C445.09076,42.4714601 442.849236,37.8357788 442.849236,37.8357788 C442.849236,37.8357788 438.971337,40.3512899 438.405562,44.0824875 C437.827915,47.8849269 438.813832,50.8160485 439.196863,51.7673075 C436.540897,53.5142922 433.755795,55.5890013 430.925811,58.0515649 C431.831869,56.6622025 432.903308,54.7458451 433.11889,53.1796413 C433.669023,49.2332445 430.596368,44.9729482 430.596368,44.9729482 C430.596368,44.9729482 427.140237,48.1863734 427.234622,52.0378452 C427.323917,55.7773126 428.698376,58.4688359 429.306188,59.4822566 C426.986235,61.5161769 424.744356,63.8847019 422.63332,66.5336517 C423.19471,65.0954857 423.711135,63.3787231 423.661453,62.0200663 C423.510436,57.9577101 419.665976,54.2205796 419.665976,54.2205796 C419.665976,54.2205796 416.765371,58.0618039 417.543648,61.9148938 C418.264229,65.4945401 419.995162,67.9016525 420.835797,68.9010599 C418.91175,71.5599659 417.11883,74.4564913 415.501906,77.5445686 C415.845954,75.9345625 416.11519,73.9509201 415.802638,72.4957892 C414.931594,68.4404445 410.408097,65.3677887 410.408097,65.3677887 C410.408097,65.3677887 408.174124,69.7408084 409.636292,73.4752421 C411.039586,77.0552766 413.301143,79.1902675 414.277766,79.9900911 C412.841858,82.9936499 411.572883,86.1569589 410.508485,89.4413664 C410.574614,87.7467395 410.500746,85.6597322 409.919449,84.228189 C408.325681,80.3087595 403.23533,78.0219312 403.23533,78.0219312 C403.23533,78.0219312 401.766151,82.812405 403.897648,86.3057509 C405.943405,89.6577598 408.597932,91.4030361 409.71895,92.0321723 C408.840313,95.1087661 408.143048,98.2792928 407.656448,101.513675 C407.407604,99.9027751 406.971537,98.0714957 406.210904,96.8586003 C403.915446,93.2023718 398.396855,91.8054649 398.396855,91.8054649 C398.396855,91.8054649 397.764741,96.8801742 400.527273,100.012697 C403.079066,102.910212 405.936992,104.207623 407.249795,104.686202 C406.931234,107.694308 406.798694,110.748103 406.87492,113.824231 C406.351243,112.368292 405.640672,110.822166 404.750893,109.837429 C401.79204,106.57007 396,106.144525 396,106.144525 C396,106.144525 396.266437,111.35461 399.5969,114.014666 C402.594665,116.408212 405.614012,117.227049 407.065893,117.497674 C407.299474,120.436595 407.730055,123.387329 408.377202,126.329784 C407.584391,124.933146 406.57638,123.462156 405.484944,122.612925 C401.934967,119.850932 396.037215,120.451225 396.037215,120.451225 C396.037215,120.451225 397.22917,125.638657 401.046124,127.722692 C404.531924,129.624109 407.754225,129.893504 409.235086,129.900904 C409.916865,132.707028 410.784408,135.429783 411.814099,138.061744 C410.806251,136.868312 409.607259,135.67618 408.431393,135.052408 C404.371733,132.908506 398.553265,134.557288 398.553265,134.557288 C398.553265,134.557288 400.669121,139.560803 404.873864,140.977127 C408.62612,142.238276 411.845536,141.98174 413.380198,141.731822 C414.621204,144.413119 416.029871,146.989701 417.578566,149.452884 C416.31696,148.384169 414.829939,147.32803 413.478595,146.892677 C409.021437,145.453701 403.467249,148.141803 403.467249,148.141803 C403.467249,148.141803 406.479498,152.792586 410.956612,153.471083 C415.041035,154.089792 418.284874,153.20908 419.737932,152.688813 C421.47754,155.149534 423.355947,157.482749 425.341829,159.67861 C423.850778,158.795591 422.102034,157.94824 420.617383,157.742706 C415.885158,157.089018 410.778088,160.773832 410.778088,160.773832 C410.778088,160.773832 414.628481,164.916011 419.249061,164.802749 C423.496447,164.699135 426.615333,163.21543 427.965855,162.439419 C430.087879,164.564526 432.308411,166.541214 434.593837,168.358919 C432.944692,167.739569 431.048757,167.203758 429.527923,167.26055 C424.658165,167.441231 420.178355,172.047787 420.178355,172.047787 C420.178355,172.047787 424.782215,175.52765 429.40603,174.597277 C433.610603,173.748897 436.467601,171.739032 437.708788,170.710455 C440.003953,172.353355 442.347154,173.838325 444.706545,175.155357 C443.088285,174.887755 441.342924,174.756 439.982611,175.047631 C435.121483,176.093963 431.435051,181.518708 431.435051,181.518708 C431.435051,181.518708 436.680194,184.198181 441.161622,182.442608 C445.082743,180.90653 447.559369,178.508739 448.68947,177.212736 C451.228851,178.419755 453.766293,179.427107 456.262503,180.222441 C454.622226,180.246894 452.895115,180.427685 451.610378,180.950237 C446.90566,182.86168 444.163084,188.964923 444.163084,188.964923 C444.163084,188.964923 449.909279,190.729125 454.101618,188.171005 C457.910716,185.847389 459.989112,182.866866 460.838238,181.416719 C466.793987,182.484965 471.7547,184.151795 475.792592,185.975243 C468.47187,189.825446 465.482364,193.38163 465.482364,193.38163 L468.083631,195.701358 C468.083631,195.701358 471.488518,191.554293 479.000386,187.550813 C486.512481,191.554291 489.917987,195.701358 489.917987,195.701358 L492.516557,193.38163 C492.516557,193.38163 489.528505,189.825375 482.208383,185.975127 C486.245453,184.152056 491.20509,182.485547 497.159569,181.4173 C498.009133,182.867662 500.087734,185.847699 503.895146,188.171005 C508.088563,190.729125 513.83368,188.964923 513.83368,188.964923 C513.83368,188.964923 511.088947,182.86168 506.388004,180.950237 C505.103945,180.428045 503.378121,180.247143 501.738679,180.222492 C504.233928,179.427517 506.770325,178.42071 509.308634,177.214406 C510.439359,178.510798 512.915916,180.90719 516.838378,182.442608 C521.31657,184.198181 526.561713,181.518708 526.561713,181.518708 C526.561713,181.518708 522.87582,176.093963 518.014153,175.047631 C516.656025,174.756377 514.913513,174.887414 513.296976,175.154318 C515.655089,173.83791 517.996988,172.353747 520.290887,170.711823 C521.532421,171.740814 524.387926,173.749273 528.591812,174.597277 C533.212392,175.52765 537.818949,172.047787 537.818949,172.047787 C537.818949,172.047787 533.339678,167.441231 528.468841,167.26055 C526.950698,167.203832 525.05812,167.738174 523.410706,168.356498 C525.694489,166.539854 527.913426,164.564439 530.033975,162.440801 C531.38603,163.217189 534.504342,164.699196 538.7504,164.802749 C543.367743,164.916011 547.222451,160.773832 547.222451,160.773832 C547.222451,160.773832 542.113763,157.089018 537.38046,157.742706 C535.898262,157.9479 534.152739,158.792793 532.663186,159.674233 C534.64727,157.479881 536.524012,155.148395 538.262167,152.689597 C539.716362,153.209964 542.958961,154.089481 547.040152,153.471083 C551.515108,152.792586 554.530054,148.141803 554.530054,148.141803 C554.530054,148.141803 548.977484,145.453701 544.519787,146.892677 C543.169971,147.327243 541.685651,148.380348 540.425548,149.447082 C541.972605,146.985755 543.379841,144.411222 544.619697,141.732147 C546.155185,141.981962 549.37327,142.237729 553.12236,140.977127 C557.329261,139.560803 559.443499,134.557288 559.443499,134.557288 C559.443499,134.557288 553.623952,132.908506 549.56645,135.052408 C548.391837,135.675049 547.194898,136.863991 546.1883,138.055254 C547.216752,135.425302 548.083308,132.704713 548.764415,129.900891 C550.246731,129.893195 553.467914,129.62302 556.951719,127.722692 C560.77029,125.638657 561.962246,120.451225 561.962246,120.451225 C561.962246,120.451225 556.061797,119.850932 552.512899,122.612925 C551.422843,123.460539 550.416297,124.927546 549.624067,126.321805 C550.270332,123.381838 550.700424,120.433625 550.933857,117.497206 C552.385913,117.226106 555.402636,116.406834 558.40256,114.014666 C561.730327,111.35461 562,106.144525 562,106.144525 C562,106.144525 556.202027,106.57007 553.24641,109.837429 C552.357846,110.820317 551.648299,112.362487 551.125087,113.816028 C551.200965,110.742203 551.068407,107.690698 550.75011,104.68482 C552.063603,104.205128 554.91696,102.907427 557.469491,100.012697 C560.230944,96.8801742 559.599909,91.8054649 559.599909,91.8054649 C559.599909,91.8054649 554.082397,93.2023718 551.790175,96.8586003 C551.028937,98.0692616 550.592004,99.8960309 550.342354,101.504771 C549.855811,98.2728166 549.158932,95.1046538 548.280947,92.0302958 C549.403494,91.3995704 552.054022,89.6544331 554.098577,86.3057509 C556.228995,82.812405 554.761973,78.0219312 554.761973,78.0219312 C554.761973,78.0219312 549.671623,80.3087595 548.077854,84.228189 C547.49776,85.6560926 547.422658,87.7361318 547.487841,89.4284335 C546.424226,86.1480862 545.15655,82.9886121 543.722325,79.9885311 C544.700631,79.1874938 546.961361,77.0529516 548.36209,73.4752421 C549.824258,69.7408084 547.588128,65.3677887 547.588128,65.3677887 C547.588128,65.3677887 543.066249,68.4404445 542.195204,72.4957892 C541.882837,73.9475393 542.150101,75.9253479 542.493138,77.5333406 C540.877329,74.4484633 539.085889,71.5548543 537.16356,68.8984588 C538.003888,67.89748 539.730478,65.4914383 540.452037,61.9148938 C541.229775,58.0618039 538.331867,54.2205796 538.331867,54.2205796 C538.331867,54.2205796 534.486328,57.9577101 534.33585,62.0200663 C534.285535,63.3753021 534.799309,65.0868425 535.359346,66.5227826 C533.250044,63.8770983 531.010212,61.511384 528.692462,59.4796664 C529.300622,58.4642554 530.671845,55.7741312 530.761063,52.0378452 C530.858145,48.1863734 527.402014,44.9729482 527.402014,44.9729482 C527.402014,44.9729482 524.328819,49.2332445 524.878952,53.1796413 C525.092828,54.7421647 526.159711,56.6531979 527.064617,58.0417615 C524.237512,55.5824871 521.4552,53.5102757 518.80176,51.7651628 C519.185201,50.8116492 520.168814,47.8820736 519.593359,44.0824875 C519.027045,40.3512899 515.146449,37.8357788 515.146449,37.8357788 C515.146449,37.8357788 512.907083,42.4714601 514.10605,46.1864774 C514.627861,47.8027054 516.214139,49.6523216 517.367754,50.8453866 C513.909875,48.6831777 510.706235,47.078618 507.953756,45.8912642 C508.151722,44.9888192 508.655169,41.9340374 507.42301,38.2731886 C506.243999,34.764741 502.06838,33 502.06838,33 C502.06838,33 500.700058,37.8530379 502.485295,41.2352784 C503.316442,42.8060841 505.362742,44.4244122 506.684818,45.3596266 C504.723602,44.5622784 503.035696,43.9888156 501.705116,43.5793164 C501.096646,42.8386064 499.017688,40.5195512 496.519585,40.0902463 C494.3951,39.7305023 490.818156,41.0977451 490.818156,41.0977451 C490.818156,41.0977451 492.530041,43.4314965 495.993183,44.6196764 C498.48264,45.4756847 501.259494,44.1349929 501.793917,43.8560665 Z" id="Combined-Shape" fill="#8D8D8D"></path>
                <circle id="Oval-2" fill="#CC0000" cx="479.5" cy="109.5" r="53.5"></circle>
                <g id="Bugle" transform="translate(392.000000, 19.000000)">
                    <path d="M170.4341,117.434944 C180.784331,117.434944 189.17485,99.3575267 189.17485,77.0579017 C189.17485,54.7582767 180.784331,36.6808589 170.4341,36.6808589 C161.535377,36.6808589 142.589013,71.2407673 39.9688928,72.4478158 C39.1736667,72.4571695 28.5823075,71.5289231 22.5831862,79.0209294 C15.2300808,88.2038595 17.9025185,107.078038 21.6998554,111.99261 C29.8748063,122.782343 67.8171041,123.040421 90.1261913,119.891442 C92.7646234,119.519022 101.875693,117.872156 106.350175,111.533172 C109.276556,107.387377 110.774221,99.7536098 110.843171,88.6318696 L102.742001,86.7678415 C103.453667,94.8124216 102.822097,100.616035 100.84729,104.17868 C99.2293284,107.09756 98.510953,108.678873 95.6258503,109.969795 C86.3166267,114.135152 38.3969399,114.737526 30.7328416,108.618845 C26.6162316,105.332324 25.1505621,94.9397121 28.1781939,87.1074148 C30.2726868,81.6890902 37.5953375,81.8703658 38.9668602,81.6425884 C137.273193,72.3388257 160.08387,117.434944 170.4341,117.434944 Z" id="Oval" stroke="#000000" stroke-width="2" fill="#FFFFFF" transform="translate(103.554296, 79.161338) rotate(-29.000000) translate(-103.554296, -79.161338) "></path>
                    <path d="M0.106996335,123.560017 C6.46613644,124.476659 11.4055941,124.48081 14.9253692,123.572471 C18.4451444,122.664132 24.2208583,119.808722 32.2525109,115.00624 C31.867424,116.490179 31.6289428,117.617 31.5370673,118.386704 C31.4451919,119.156407 31.4451919,120.027506 31.5370673,121 C24.1576909,125.362146 19.205253,129.002278 16.6797536,131.920396 C14.1542543,134.838515 12.6121691,139.087711 12.0534982,144.667985 L0.106996335,123.560017 Z" id="Rectangle" stroke="#000000" stroke-width="2" fill="#D8D8D8"></path>
                    <ellipse id="Oval" stroke="#000000" stroke-width="2" fill="#FFFFFF" transform="translate(161.028924, 44.897659) rotate(-29.000000) translate(-161.028924, -44.897659) " cx="161.028924" cy="44.8976586" rx="18.74075" ry="40.3770428"></ellipse>
                    <mask id="mask-2" fill="white">
                        <use xlink:href="#path-1"></use>
                    </mask>
                    <g id="Mask" transform="translate(161.626821, 44.050829) rotate(-28.000000) translate(-161.626821, -44.050829) ">
                        <use fill="#FFFFFF" fill-rule="evenodd" xlink:href="#path-1"></use>
                        <path stroke="#000000" stroke-width="1" d="M162.131254,78.8706477 C154.963973,79.9949912 148.26377,63.2077498 148.26377,44.354757 C148.26377,24.0359419 154.324937,7.31798628 162.178886,9.34794648 C168.411911,10.9589565 174.746514,27.5648659 174.983776,45.2280344 C175.208224,61.9372994 169.101409,77.7772279 162.131254,78.8706477 Z"></path>
                    </g>
                    <path d="M164.667825,56.2945711 C162.718633,37.7492525 152.799494,23.238098 141.621452,21.5001042 C141.431806,28.7373344 144.816065,39.8333935 150.412107,50.3580182 C154.578409,58.1936938 159.760455,64.7911273 164.63757,69.1775685 C165.105766,65.1095389 165.138071,60.7686667 164.667825,56.2945711 Z" id="Combined-Shape" fill="#CDCDCC" fill-rule="nonzero"></path>
                    <path d="M154.196954,28.2667276 C162.563203,29.1102454 170.318116,36.9960838 176.734521,45.7276656 C175.812036,43.5022402 174.745006,41.2644901 173.534696,39.0601734 C164.428852,22.4758559 151.301017,12.3488769 145.939042,13.6369916 C140.607937,14.9176906 140.534324,23.9661814 143.923665,34.945768 C145.466687,30.5635923 148.502407,27.6925813 154.196954,28.2667276 Z" id="Combined-Shape" fill="#000000" fill-rule="nonzero"></path>
                    <path d="M51.525265,143.02267 C56.4286561,143.02267 53.0885582,141.696701 49.8767669,139.073076 C47.7224546,137.313277 45.5739301,134.96684 43.862502,132.055624 C39.5995637,124.804176 40.4149063,121.272374 40.8521308,118.696798 C41.8221163,112.982865 37.4800298,118.42144 37.4800298,124.496572 C37.4800298,130.571705 44.6202236,143.02267 51.525265,143.02267 Z" id="Oval-4" fill="#CDCDCC"></path>
                    <path d="M135.361011,53.1515501 C132.234401,54.1898554 129.384259,55.0393281 126.810586,55.6999681 C125.285655,56.0914051 122.820105,56.4049421 119.413936,56.6405791 L118.823193,101.495676 C120.201631,89.1673523 122.599868,78.671115 126.017902,70.0069638 C129.435937,61.3428126 132.550306,55.7243414 135.361011,53.1515501 Z" id="Combined-Shape" fill="#292929" transform="translate(127.092102, 77.323613) rotate(61.000000) translate(-127.092102, -77.323613) "></path>
                    <path d="M101.760643,32.2866679 C105.764466,33.2768684 109.21193,33.9765093 112.103035,34.3855905 C114.994141,34.7946718 118.26113,34.8850861 121.904005,34.6568333 L122.731944,88.4863251 C121.13637,74.2160045 118.360355,62.0663662 114.403901,52.03741 C110.447446,42.0084539 106.233027,35.4248732 101.760643,32.2866679 Z" id="Combined-Shape" fill="#CDCDCC" transform="translate(112.246294, 60.386496) rotate(61.000000) translate(-112.246294, -60.386496) "></path>
                </g>
                <path d="M58.7977613,80.6126177 L53.5683555,80.6126177 L59.1364564,53.3842545 L94.7825603,53.3842545 C101.316662,53.3842545 107.098375,54.5550303 112.061168,57.0069123 C117.581019,59.7340099 121.772431,64.164931 124.464662,69.9901239 C126.896486,75.2518716 128.096089,81.6145133 128.208314,89.0882835 C128.313809,96.1138819 127.377862,104.353782 125.432492,113.86676 C123.144614,125.054628 120.432909,134.460101 117.257113,142.119243 C113.977075,150.029786 110.186198,156.514498 105.807654,161.563866 C101.215521,166.859546 95.9782263,170.743154 90.1242805,173.093938 C84.5602501,175.328299 78.5224593,176.433789 72.0698655,176.433789 L33.9732758,176.433789 L39.5099239,149.359232 L44.7393297,149.359232 L58.7977613,80.6126177 Z M142.78338,149.359232 L137.246732,176.433789 L100.109879,176.433789 L105.646527,149.359232 L110.738589,149.359232 L141.592964,53.3842545 L182.691037,53.3842545 L177.829885,149.359232 L184.464821,149.359232 L178.928173,176.433789 L129.025417,176.433789 L134.562065,149.359232 L147.752485,149.359232 L147.752485,158.359232 L138.762393,157.937039 L139.165225,149.359232 L142.78338,149.359232 Z M190.455744,80.6126177 L185.226338,80.6126177 L190.794439,53.3842545 L240.08197,53.3842545 L234.513869,80.6126177 L229.284463,80.6126177 L215.226031,149.359232 L220.455437,149.359232 L214.918789,176.433789 L165.631258,176.433789 L171.167906,149.359232 L176.397312,149.359232 L190.455744,80.6126177 Z M229.522481,80.6126177 L224.293076,80.6126177 L229.861176,53.3842545 L279.148708,53.3842545 L273.580607,80.6126177 L268.351201,80.6126177 L259.828458,122.289367 L284.437426,122.289367 L273.36509,176.433789 L204.697996,176.433789 L210.234644,149.359232 L215.46405,149.359232 L229.522481,80.6126177 Z M326.863715,129.176712 L322.736463,149.359232 L329.042511,149.359232 L323.505863,176.433789 L273.14169,176.433789 L278.678338,149.359232 L284.369162,149.359232 L288.718571,128.090349 L285.246444,80.6126177 L278.125195,80.6126177 L283.693295,53.3842545 L333.749857,53.3842545 L328.181756,80.6126177 L315.914172,80.6126177 L315.914172,71.6126177 L324.909647,71.3272442 L326.149005,110.393982 L308.941912,106.995699 L326.466893,67.9289611 L334.678511,71.6126177 L334.678511,80.6126177 L318.422381,80.6126177 L323.990482,53.3842545 L360.973528,53.3842545 L355.405427,80.6126177 L349.072335,80.6126177 L326.863715,129.176712 Z" id="DAILY" fill="#000000" fill-rule="nonzero"></path>
                <path d="M114.614973,109.06361 C112.434236,119.72755 109.877089,128.596943 106.943455,135.672057 C104.00982,142.747171 100.698058,148.412304 97.0080686,152.667626 C93.318079,156.922948 89.2389123,159.947771 84.7704461,161.742184 C80.3019799,163.536596 75.4018354,164.433789 70.0698655,164.433789 L43,164.433789 L44.8557138,155.359232 L50.0851197,155.359232 L67.8244856,68.6126177 L62.5950797,68.6126177 L64.4822463,59.3842545 L92.7825603,59.3842545 C98.0119923,59.3842545 102.442655,60.2814475 106.074682,62.0758604 C109.706708,63.8702734 112.446785,66.7669251 114.294993,70.7659025 C116.143202,74.7648799 117.114637,79.9173312 117.209328,86.2234109 C117.304019,92.5294907 116.439243,100.142814 114.614973,109.06361 Z M92.7430603,109.217416 C94.3786128,101.219461 95.6798005,94.605867 96.6466624,89.376435 C97.6135242,84.1470031 98.0525953,79.9942811 97.9638888,76.9181447 C97.8751823,73.8420082 97.1619829,71.688745 95.8242692,70.4582904 C94.4865555,69.2278358 92.3821999,68.6126177 89.5111392,68.6126177 L88.2806908,68.6126177 L70.5413249,155.359232 L73.3098338,155.359232 C75.4631294,155.359232 77.3058467,154.872185 78.838041,153.898075 C80.3702354,152.923965 81.8254492,150.82197 83.203726,147.592027 C84.5820027,144.362083 85.9922322,139.722314 87.4344567,133.672579 C88.8766812,127.622844 90.646198,119.471204 92.7430603,109.217416 Z M169.582383,164.433789 L138.052141,164.433789 L139.907855,155.359232 L145.752485,155.359232 L146.807051,132.903548 L131.118834,132.903548 L123.912026,155.359232 L129.756656,155.359232 L127.900942,164.433789 L109.136603,164.433789 L110.992317,155.359232 L115.298887,155.359232 L146.153261,59.3842545 L171.223648,59.3842545 L166.362497,155.359232 L171.438096,155.359232 L169.582383,164.433789 Z M147.093252,123.982797 L150.359221,74.918666 L134.173543,123.982797 L147.093252,123.982797 Z M205.572999,164.433789 L207.428713,155.359232 L202.199307,155.359232 L219.938673,68.6126177 L225.168079,68.6126177 L227.055246,59.3842545 L196.140229,59.3842545 L194.253062,68.6126177 L199.482468,68.6126177 L181.743102,155.359232 L176.513696,155.359232 L174.657982,164.433789 L205.572999,164.433789 Z M264.0193,164.433789 L271.410702,128.289367 L257.87577,128.289367 L252.340081,155.359232 L241.266045,155.359232 L259.005411,68.6126177 L264.234817,68.6126177 L266.121983,59.3842545 L235.206966,59.3842545 L233.3198,68.6126177 L238.549206,68.6126177 L220.80984,155.359232 L215.580434,155.359232 L213.72472,164.433789 L264.0193,164.433789 Z M346.059638,68.6126177 L347.946804,59.3842545 L329.336272,59.3842545 L327.449105,68.6126177 L332.678511,68.6126177 L315.15353,107.679355 L313.914172,68.6126177 L318.835966,68.6126177 L320.723133,59.3842545 L289.039085,59.3842545 L287.151919,68.6126177 L291.612294,68.6126177 L295.785338,125.674664 L289.714952,155.359232 L284.024128,155.359232 L282.168414,164.433789 L314.160073,164.433789 L316.015787,155.359232 L309.709739,155.359232 L316.251917,123.367573 L341.29165,68.6126177 L346.059638,68.6126177 Z" id="DAILY" fill="#FFFFFF"></path>
                <path d="M625.088704,80.6126177 L619.859298,80.6126177 L625.427399,53.3842545 L656.305515,53.3842545 C662.5443,53.3842545 668.000553,53.8762688 672.70789,54.8953863 C678.130234,56.0692996 682.696148,58.1623453 686.28473,61.2951003 C690.195748,64.7093344 692.687182,69.2373993 693.693922,74.5516072 C694.579876,79.228233 694.322145,84.6122349 693.057618,90.7958524 C691.556119,98.1382767 688.936869,104.293267 685.091751,109.173913 C684.092475,110.442304 683.006013,111.634294 681.835004,112.749789 C682.958573,114.239708 683.899751,115.865873 684.645942,117.626967 C687.146282,123.528049 687.38176,130.585095 685.705249,138.783341 C684.347287,145.423859 682.439232,151.10132 679.917952,155.827742 C677.165018,160.988425 673.421926,165.218748 668.748671,168.407887 C664.215591,171.501367 658.806658,173.6156 652.585401,174.810962 C646.901052,175.903162 640.17366,176.433789 632.362372,176.433789 L600.264218,176.433789 L605.800866,149.359232 L611.030272,149.359232 L625.088704,80.6126177 Z M748.590845,136.630057 C747.21365,143.364628 745.584847,149.137121 743.673965,153.975135 C741.591024,159.248769 738.961796,163.673572 735.725068,167.206984 C732.323846,170.919967 728.28873,173.662774 723.702657,175.344974 C719.431241,176.911756 714.631601,177.664238 709.321389,177.664238 C697.437997,177.664238 688.382254,173.810663 683.376511,165.569195 C678.806057,158.044387 678.26501,147.749893 680.961923,134.561816 L691.994337,80.6126177 L686.764932,80.6126177 L692.333032,53.3842545 L742.697206,53.3842545 L737.129105,80.6126177 L723.477267,80.6126177 L723.477267,71.6126177 L732.294786,73.4157683 L719.053167,138.168117 C718.231543,142.185913 717.705183,145.448523 717.470416,147.909255 C717.4385,148.24378 717.413686,148.560219 717.395644,148.858002 C718.171507,147.920747 718.763503,146.418602 719.360293,144.376311 C720.135466,141.723568 720.990362,138.132372 721.909244,133.63898 L734.962147,69.8094672 L743.779666,71.6126177 L743.779666,80.6126177 L726.293087,80.6126177 L731.861188,53.3842545 L770.689908,53.3842545 L765.121807,80.6126177 L760.046207,80.6126177 L748.590845,136.630057 Z M806.126312,176.433789 L784.253813,176.433789 L784.212535,175.861279 C780.858456,177.064198 777.309479,177.664238 773.61232,177.664238 C760.444468,177.664238 750.927969,170.581013 746.769129,157.846378 C743.226404,146.998328 743.55944,132.313017 747.4086,113.490387 C749.225135,104.607414 751.524669,96.5629315 754.319675,89.3537775 C757.178798,81.9792499 760.476637,75.6349531 764.247068,70.3244195 C768.180222,64.7846935 772.55328,60.4000321 777.401874,57.233142 C782.678623,53.7866001 788.403776,52 794.398815,52 C798.907896,52 803.049948,52.8796878 806.731405,54.7086245 C806.781331,54.7334278 807.102365,54.2919711 807.694506,53.3842545 L831.289493,53.3842545 L821.034928,103.52972 L789.812299,103.52972 L789.121298,106.908761 L826.649975,106.908761 L821.207685,133.5219 L814.901637,133.5219 L806.126312,176.433789 Z M827.343665,80.6126177 L822.114259,80.6126177 L827.68236,53.3842545 L876.969891,53.3842545 L871.40179,80.6126177 L866.172384,80.6126177 L857.649641,122.289367 L882.25861,122.289367 L871.186273,176.433789 L802.519179,176.433789 L808.055828,149.359232 L813.285233,149.359232 L827.343665,80.6126177 Z M883.944293,80.6126177 L878.714887,80.6126177 L884.282988,53.3842545 L954.026724,53.3842545 L944.432668,100.299793 L935.358111,100.299793 L929.791929,127.518773 L938.866486,127.518773 L928.863544,176.433789 L859.119807,176.433789 L864.656455,149.359232 L869.885861,149.359232 L883.944293,80.6126177 Z" id="BUGLE" fill="#000000" fill-rule="nonzero"></path>
                <path d="M674.887729,133.980191 C673.692518,139.82485 672.055671,144.695326 669.97714,148.591766 C667.898608,152.488205 665.131446,155.615564 661.675569,157.973935 C658.219692,160.332306 653.956942,161.998522 648.887191,162.972632 C643.817439,163.946742 637.642562,164.433789 630.362372,164.433789 L609.290942,164.433789 L611.146656,155.359232 L616.376062,155.359232 L634.115428,68.6126177 L628.886022,68.6126177 L630.773189,59.3842545 L654.305515,59.3842545 C659.945099,59.3842545 664.777728,59.8200339 668.803548,60.6916059 C672.829368,61.5631779 676.016805,63.0243208 678.365955,65.0750785 C680.715106,67.1258361 682.210172,69.8430493 682.8512,73.2267994 C683.492228,76.6105495 683.28853,80.8658077 682.240098,85.9927019 C681.00295,92.0424369 678.930324,96.9129132 676.022158,100.604277 C673.113992,104.295641 669.14318,107.166658 664.109603,109.217416 C669.248244,111.165636 672.664715,114.13919 674.359117,118.138167 C676.053519,122.137145 676.229721,127.417766 674.887729,133.980191 Z M661.843341,86.45412 C663.122427,80.1993092 663.358154,75.662076 662.55053,72.8422842 C661.742906,70.0224925 659.852323,68.6126177 656.878724,68.6126177 L654.571633,68.6126177 L647.022967,105.526071 L647.314853,105.602974 C647.509444,105.654243 647.709275,105.679877 647.91435,105.679877 C651.605714,105.679877 654.488313,104.244368 656.562234,101.373307 C658.636155,98.5022466 660.396506,93.5292339 661.843341,86.45412 Z M653.232528,133.826385 C654.7213,126.546195 654.970393,121.316842 653.979815,118.138167 C652.989236,114.959493 650.597031,113.370179 646.80313,113.370179 C646.598054,113.370179 646.310837,113.395814 645.94147,113.447083 L645.387423,113.523986 L636.832267,155.359232 L638.524134,155.359232 C642.318036,155.359232 645.314231,153.744285 647.512811,150.514342 C649.711391,147.284398 651.617944,141.721802 653.232528,133.826385 Z M755.776017,68.6126177 L757.663183,59.3842545 L737.206978,59.3842545 L735.319812,68.6126177 L741.779666,68.6126177 L728.726764,132.44213 C727.762207,137.158873 726.852967,140.978352 725.999017,143.900681 C725.145066,146.823011 724.217108,149.104445 723.215114,150.745051 C722.21312,152.385657 721.013615,153.487922 719.616564,154.051881 C718.219513,154.615839 716.495635,154.897814 714.444877,154.897814 C712.291581,154.897814 710.585734,154.590205 709.327285,153.974978 C708.068835,153.35975 707.217613,152.257485 706.773592,150.668148 C706.329572,149.07881 706.242075,146.874279 706.511098,144.054487 C706.780122,141.234696 707.354966,137.671558 708.235648,133.364967 L721.477267,68.6126177 L727.783315,68.6126177 L729.670482,59.3842545 L697.678822,59.3842545 L695.791656,68.6126177 L701.021062,68.6126177 L687.779443,133.364967 C685.493863,144.541596 685.923635,152.718869 689.068773,157.897032 C692.213911,163.075195 698.298055,165.664238 707.321389,165.664238 C711.62798,165.664238 715.388588,165.074654 718.603326,163.895468 C721.818063,162.716283 724.646457,160.793726 727.088592,158.127741 C729.530727,155.461756 731.602256,151.975521 733.303242,147.66893 C735.004227,143.362339 736.49424,138.081717 737.773326,131.826906 L750.700417,68.6126177 L755.776017,68.6126177 Z M811.861895,121.5219 L813.623251,112.908761 L781.939204,112.908761 L780.177848,121.5219 L786.022478,121.5219 L781.807806,142.131912 C780.801312,147.05373 779.714363,150.488697 778.546925,152.436917 C777.379487,154.385137 775.770413,155.359232 773.719656,155.359232 C772.489201,155.359232 771.516258,155.102891 770.800798,154.590202 C770.085338,154.077513 769.622717,153.205954 769.41292,151.975499 C769.203123,150.745044 769.221099,149.027561 769.466849,146.822996 C769.712598,144.618432 770.181448,141.824316 770.873413,138.440566 L781.284282,87.5307624 C782.856928,79.8404212 784.603859,74.4316291 786.525125,71.3042237 C788.446392,68.1768183 790.945056,66.613139 794.021192,66.613139 C795.661798,66.613139 796.941774,66.9976503 797.861157,67.7666844 C798.78054,68.5357186 799.4529,69.5098138 799.878257,70.6889995 C800.303614,71.8681851 800.497682,73.1755235 800.460466,74.6110538 C800.42325,76.0465842 800.268348,77.4308248 799.995756,78.7638173 L797.385175,91.5297198 L811.689139,91.5297198 L818.262769,59.3842545 L811.18769,59.3842545 L807.867195,65.8441088 C805.480718,62.9730481 803.100727,60.9479553 800.72715,59.7687696 C798.353573,58.589584 795.577489,58 792.398815,58 C788.194761,58 784.169689,59.2560702 780.323477,61.7682483 C776.477264,64.2804264 772.89799,67.8691985 769.585546,72.5346721 C766.273103,77.2001458 763.314975,82.8909128 760.711076,89.6071441 C758.107177,96.3233754 755.945546,103.885431 754.226119,112.293537 C750.661453,129.724977 750.360903,142.9778 753.324461,152.052402 C756.288018,161.127005 762.38391,165.664238 771.61232,165.664238 C774.893532,165.664238 777.946869,165.023386 780.772424,163.741662 C783.597979,162.459939 786.709501,160.281041 790.107082,157.204905 L790.62828,164.433789 L796.780522,164.433789 L805.555847,121.5219 L811.861895,121.5219 Z M861.840483,164.433789 L869.231886,128.289367 L855.696953,128.289367 L850.161264,155.359232 L839.087229,155.359232 L856.826594,68.6126177 L862.056,68.6126177 L863.943167,59.3842545 L833.02815,59.3842545 L831.140983,68.6126177 L836.370389,68.6126177 L818.631023,155.359232 L813.401617,155.359232 L811.545904,164.433789 L861.840483,164.433789 Z M919.517754,164.433789 L925.839762,133.518773 L912.304829,133.518773 L907.838535,155.359232 L895.687856,155.359232 L903.865578,115.369658 L909.864014,115.369658 L907.725226,125.82847 L918.337843,125.82847 L924.376776,96.2977075 L913.764159,96.2977075 L911.688275,106.448907 L905.689839,106.448907 L913.427222,68.6126177 L925.577901,68.6126177 L921.551945,88.2997927 L935.086878,88.2997927 L941,59.3842545 L889.628778,59.3842545 L887.741611,68.6126177 L892.971017,68.6126177 L875.231651,155.359232 L870.002245,155.359232 L868.146532,164.433789 L919.517754,164.433789 Z" id="BUGLE" fill="#FFFFFF"></path>
            </g>
        </g>
    </g>
</svg>